<svg xmlns="http://www.w3.org/2000/svg" width="760" height="252" viewBox="0 0 760 252" role="img" aria-label="greedy-token — paths &amp; savings">
<rect width="100%" height="100%" fill="#ffffff"/>
<style>text{font-family:ui-sans-serif, system-ui, -apple-system, Segoe UI, sans-serif;font-size:12px;}</style>
<rect x="0" y="0" width="90" height="40" fill="#f3f3f3" stroke="#d0d0d0"/>
<text x="8" y="24.0" fill="#111111" font-weight="600">Path</text>
<rect x="90" y="0" width="220" height="40" fill="#f3f3f3" stroke="#d0d0d0"/>
<text x="98" y="24.0" fill="#111111" font-weight="600">When · not for</text>
<rect x="310" y="0" width="70" height="40" fill="#f3f3f3" stroke="#d0d0d0"/>
<text x="318" y="24.0" fill="#111111" font-weight="600">$ · 1</text>
<rect x="380" y="0" width="90" height="40" fill="#e6f6ea" stroke="#d0d0d0"/>
<text x="388" y="24.0" fill="#15803d" font-weight="600">save · 1</text>
<rect x="470" y="0" width="80" height="40" fill="#f3f3f3" stroke="#d0d0d0"/>
<text x="478" y="24.0" fill="#111111" font-weight="600">$ · ×10</text>
<rect x="550" y="0" width="100" height="40" fill="#e6f6ea" stroke="#d0d0d0"/>
<text x="558" y="24.0" fill="#15803d" font-weight="600">save · ×10</text>
<rect x="650" y="0" width="110" height="40" fill="#e6f6ea" stroke="#d0d0d0"/>
<text x="658" y="24.0" fill="#15803d" font-weight="600">~time</text>
<rect x="0" y="40" width="90" height="34" fill="#ffffff" stroke="#d0d0d0"/>
<text x="8" y="61.0" fill="#111111" font-weight="700">tool</text>
<rect x="90" y="40" width="220" height="34" fill="#ffffff" stroke="#d0d0d0"/>
<text x="98" y="61.0" fill="#111111" font-weight="400">Find text · not edits</text>
<rect x="310" y="40" width="70" height="34" fill="#ffffff" stroke="#d0d0d0"/>
<text x="318" y="61.0" fill="#111111" font-weight="400">$0</text>
<rect x="380" y="40" width="90" height="34" fill="#e6f6ea" stroke="#d0d0d0"/>
<text x="388" y="61.0" fill="#15803d" font-weight="600">$30</text>
<rect x="470" y="40" width="80" height="34" fill="#ffffff" stroke="#d0d0d0"/>
<text x="478" y="61.0" fill="#111111" font-weight="400">$0</text>
<rect x="550" y="40" width="100" height="34" fill="#e6f6ea" stroke="#d0d0d0"/>
<text x="558" y="61.0" fill="#15803d" font-weight="600">$300</text>
<rect x="650" y="40" width="110" height="34" fill="#e6f6ea" stroke="#d0d0d0"/>
<text x="658" y="61.0" fill="#15803d" font-weight="600">~1s / ~20s</text>
<rect x="0" y="74" width="90" height="34" fill="#ffffff" stroke="#d0d0d0"/>
<text x="8" y="95.0" fill="#111111" font-weight="700">python</text>
<rect x="90" y="74" width="220" height="34" fill="#ffffff" stroke="#d0d0d0"/>
<text x="98" y="95.0" fill="#111111" font-weight="400">Script exists · not “fix it”</text>
<rect x="310" y="74" width="70" height="34" fill="#ffffff" stroke="#d0d0d0"/>
<text x="318" y="95.0" fill="#111111" font-weight="400">$0</text>
<rect x="380" y="74" width="90" height="34" fill="#e6f6ea" stroke="#d0d0d0"/>
<text x="388" y="95.0" fill="#15803d" font-weight="600">$25</text>
<rect x="470" y="74" width="80" height="34" fill="#ffffff" stroke="#d0d0d0"/>
<text x="478" y="95.0" fill="#111111" font-weight="400">$0</text>
<rect x="550" y="74" width="100" height="34" fill="#e6f6ea" stroke="#d0d0d0"/>
<text x="558" y="95.0" fill="#15803d" font-weight="600">$250</text>
<rect x="650" y="74" width="110" height="34" fill="#e6f6ea" stroke="#d0d0d0"/>
<text x="658" y="95.0" fill="#15803d" font-weight="600">~1s / ~20s</text>
<rect x="0" y="108" width="90" height="34" fill="#ffffff" stroke="#d0d0d0"/>
<text x="8" y="129.0" fill="#111111" font-weight="700">rag</text>
<rect x="90" y="108" width="220" height="34" fill="#ffffff" stroke="#d0d0d0"/>
<text x="98" y="129.0" fill="#111111" font-weight="400">Answer in docs · not raw code</text>
<rect x="310" y="108" width="70" height="34" fill="#ffffff" stroke="#d0d0d0"/>
<text x="318" y="129.0" fill="#111111" font-weight="400">$0</text>
<rect x="380" y="108" width="90" height="34" fill="#e6f6ea" stroke="#d0d0d0"/>
<text x="388" y="129.0" fill="#15803d" font-weight="600">$15</text>
<rect x="470" y="108" width="80" height="34" fill="#ffffff" stroke="#d0d0d0"/>
<text x="478" y="129.0" fill="#111111" font-weight="400">$0</text>
<rect x="550" y="108" width="100" height="34" fill="#e6f6ea" stroke="#d0d0d0"/>
<text x="558" y="129.0" fill="#15803d" font-weight="600">$150</text>
<rect x="650" y="108" width="110" height="34" fill="#e6f6ea" stroke="#d0d0d0"/>
<text x="658" y="129.0" fill="#15803d" font-weight="600">~0.5s / ~15s</text>
<rect x="0" y="142" width="90" height="34" fill="#ffffff" stroke="#d0d0d0"/>
<text x="8" y="163.0" fill="#111111" font-weight="700">ollama</text>
<rect x="90" y="142" width="220" height="34" fill="#ffffff" stroke="#d0d0d0"/>
<text x="98" y="163.0" fill="#111111" font-weight="400">Bulk / light audit · not wiring</text>
<rect x="310" y="142" width="70" height="34" fill="#ffffff" stroke="#d0d0d0"/>
<text x="318" y="163.0" fill="#111111" font-weight="400">$8</text>
<rect x="380" y="142" width="90" height="34" fill="#e6f6ea" stroke="#d0d0d0"/>
<text x="388" y="163.0" fill="#15803d" font-weight="600">$12</text>
<rect x="470" y="142" width="80" height="34" fill="#ffffff" stroke="#d0d0d0"/>
<text x="478" y="163.0" fill="#111111" font-weight="400">$25</text>
<rect x="550" y="142" width="100" height="34" fill="#e6f6ea" stroke="#d0d0d0"/>
<text x="558" y="163.0" fill="#15803d" font-weight="600">$175</text>
<rect x="650" y="142" width="110" height="34" fill="#e6f6ea" stroke="#d0d0d0"/>
<text x="658" y="163.0" fill="#15803d" font-weight="600">~5s / ~25s</text>
<rect x="0" y="176" width="90" height="34" fill="#ffffff" stroke="#d0d0d0"/>
<text x="8" y="197.0" fill="#111111" font-weight="700">cursor</text>
<rect x="90" y="176" width="220" height="34" fill="#ffffff" stroke="#d0d0d0"/>
<text x="98" y="197.0" fill="#111111" font-weight="400">Wiring / judgment · not grep</text>
<rect x="310" y="176" width="70" height="34" fill="#ffffff" stroke="#d0d0d0"/>
<text x="318" y="197.0" fill="#111111" font-weight="400">$40</text>
<rect x="380" y="176" width="90" height="34" fill="#e6f6ea" stroke="#d0d0d0"/>
<text x="388" y="197.0" fill="#15803d" font-weight="600">$0</text>
<rect x="470" y="176" width="80" height="34" fill="#ffffff" stroke="#d0d0d0"/>
<text x="478" y="197.0" fill="#111111" font-weight="400">$400</text>
<rect x="550" y="176" width="100" height="34" fill="#e6f6ea" stroke="#d0d0d0"/>
<text x="558" y="197.0" fill="#15803d" font-weight="600">$0</text>
<rect x="650" y="176" width="110" height="34" fill="#e6f6ea" stroke="#d0d0d0"/>
<text x="658" y="197.0" fill="#15803d" font-weight="600">~same</text>
<rect x="0" y="210" width="90" height="34" fill="#f7faf7" stroke="#d0d0d0"/>
<text x="8" y="231.0" fill="#111111" font-weight="700">★ TOTAL</text>
<rect x="90" y="210" width="220" height="34" fill="#f7faf7" stroke="#d0d0d0"/>
<text x="98" y="231.0" fill="#111111" font-weight="700">router vs classical</text>
<rect x="310" y="210" width="70" height="34" fill="#f7faf7" stroke="#d0d0d0"/>
<text x="318" y="231.0" fill="#111111" font-weight="700">$48</text>
<rect x="380" y="210" width="90" height="34" fill="#c6ebd2" stroke="#d0d0d0"/>
<text x="388" y="231.0" fill="#0f6b32" font-weight="700">★ $82</text>
<rect x="470" y="210" width="80" height="34" fill="#f7faf7" stroke="#d0d0d0"/>
<text x="478" y="231.0" fill="#111111" font-weight="700">$425</text>
<rect x="550" y="210" width="100" height="34" fill="#c6ebd2" stroke="#d0d0d0"/>
<text x="558" y="231.0" fill="#0f6b32" font-weight="700">★ $820</text>
<rect x="650" y="210" width="110" height="34" fill="#c6ebd2" stroke="#d0d0d0"/>
<text x="658" y="231.0" fill="#0f6b32" font-weight="700">★ ~6h / ~60h</text>
</svg>
